<svg xmlns="http://www.w3.org/2000/svg" viewBox="0 0 391.1 642.65"><defs><style>.cls-1{fill:#fff;}</style></defs><title>logo</title><g id="Layer_2" data-name="Layer 2"><g id="Layer_1-2" data-name="Layer 1"><path class="cls-1" d="M39.94,139.32c8.81,0,17.62,0,26.43,0,8.11,0,13.51,4.91,13.6,12.09.1,7.41-5.32,12.39-13.76,12.42q-26.17.09-52.36,0c-8.5,0-13.91-4.94-13.85-12.31s5.55-12.18,14-12.2C22.65,139.3,31.3,139.32,39.94,139.32Z"/><path class="cls-1" d="M139.29,39.79c0-8.65,0-17.29,0-25.94S144.21,0,151.64,0s12.17,5.49,12.18,14q0,26.19,0,52.38c0,8.12-4.88,13.55-12.06,13.71s-12.38-5.59-12.45-13.87c-.06-8.81,0-17.62,0-26.44Z"/><path class="cls-1" d="M263.47,139.33c8.81,0,17.62-.07,26.43,0,7.71.08,13,5,13.18,12,.14,7.22-5.17,12.41-13.2,12.47q-26.69.19-53.36.06c-8.06,0-13.48-5.16-13.47-12.29s5.46-12.15,13.49-12.21c9-.08,18,0,26.93,0Z"/><path class="cls-1" d="M263.1,53.39c-1.64,3-2.74,6.41-5,8.75C245.56,75,232.79,87.71,220,100.36c-5.49,5.43-12.84,5.58-17.82.66s-4.85-12.43.5-17.84C215.32,70.38,228.1,57.71,240.8,45c4.07-4.08,8.86-5.32,14.15-3.09C259.65,43.86,262.09,47.68,263.1,53.39Z"/><path class="cls-1" d="M53.63,40c2.8,1.57,6.1,2.64,8.32,4.81,13,12.66,25.73,25.53,38.46,38.42C105.85,88.69,106,96,101,101s-12.36,4.84-17.79-.54Q63.88,81.33,44.76,62c-3.89-3.91-5-8.52-2.95-13.72C43.67,43.65,48.05,40.82,53.63,40Z"/><path class="cls-1" d="M390.82,351.44c-.08-19.73-13.88-37.07-32.93-42.22-11.43-3.09-22.34-1.53-33.13,4-4.06-14.08-12.25-24.32-25.33-30.23-13.28-6-26.47-4.94-39.29,1.46-13.56-30.93-30.3-38.68-64-29.6v-8.45c0-31.66.08-63.32,0-95a44.59,44.59,0,0,0-89.17-.06c-.11,33.16,0,66.32,0,99.48v48.75l-.74.14c-.67-1.44-1.35-2.88-2-4.33a44.63,44.63,0,0,0-84.46,26.37q12.7,74.08,25.51,148.16c3.55,20.31,6.33,40.76,13.82,60.23,31.17,81.12,101.75,123.09,185.9,110.23,81.16-12.39,144.7-85,145.88-167.44C391.36,432.43,391,391.94,390.82,351.44ZM365.89,477.8c-3.54,85-79,149.23-163.73,141.23-53.52-5-89.36-34.41-113.07-80.95-10.59-20.77-15.21-43.16-19-65.92C61.74,422.41,52.91,372.74,44.5,323a33.49,33.49,0,0,1,.26-13.75c2.33-8.85,10.92-14.14,20.31-13.64s16.71,7.28,18.67,17.27c3.1,15.85,6.07,31.72,9.12,47.58q7,36.29,14,72.58c1.42,7.27,6.52,11.34,13.29,10.82,6.54-.51,11-5.55,11-13.08q.09-69.24,0-138.48h0c0-45.32-.06-90.65.09-136a31.38,31.38,0,0,1,2.25-12.1c3.66-8.44,13.22-12.88,21.93-11a20,20,0,0,1,16.25,19.53c.24,11,.12,22,.12,33q0,84.5,0,169c0,10,7.7,16.12,16.27,13,5.16-1.86,8-6.13,8-12.53,0-19.33-.06-38.66,0-58,0-9.08,5.09-16.41,13.07-19.47a20.21,20.21,0,0,1,22.35,5.49c3.88,4.33,5.15,9.55,5.14,15.24,0,19.16-.06,38.33.1,57.49.08,9.14,8.35,14.91,16.48,11.64,5.15-2.07,7.76-6.08,7.77-11.68,0-10.33-.14-20.66,0-31,.19-10.11,7.25-18,17.2-19.8a19.91,19.91,0,0,1,21.81,12.91,31,31,0,0,1,1.39,9.8c.15,19,.06,38,.18,57,0,7.06,4.05,11.9,10.17,12.83,7.57,1.16,14-4.36,14.13-12.43.15-10.67-.13-21.34.06-32a20.13,20.13,0,0,1,38.55-7.66,20.74,20.74,0,0,1,1.68,7.74C366.31,394.83,367.62,436.38,365.89,477.8Z"/></g></g></svg>